<svg xmlns="http://www.w3.org/2000/svg" xmlns:xlink="http://www.w3.org/1999/xlink" version="1.1" width="64" height="64" x="0px" y="0px" viewBox="0 0 100 125" enable-background="new 0 0 100 100" xml:space="preserve"><style type="text/css">rect,path{opacity:0.2;}</style><g><path d="M46.273,95.465c-0.813,0-1.524-0.609-1.952-1.671l-1.273-3.168l-2.255,2.563c-0.586,0.666-1.229,1.017-1.861,1.017   c-0.93,0-1.646-0.748-1.915-2.001l-0.719-3.337l-2.657,2.146c-0.577,0.466-1.169,0.712-1.712,0.713c-0.843,0-1.771-0.61-1.843-2.32   l-0.145-3.411l-2.981,1.665c-1.117,0.624-2.165,0.568-2.767-0.116c-0.417-0.474-0.578-1.19-0.466-2.069l0.434-3.388l-3.22,1.137   c-1.136,0.402-2.123,0.219-2.629-0.466c-0.281-0.38-0.542-1.076-0.187-2.233l1.002-3.266l-3.37,0.578   c-1.173,0.2-2.025-0.102-2.446-0.785c-0.376-0.61-0.331-1.446,0.126-2.353l1.539-3.051l-3.416,0.001h-0.002   c-1.087,0-1.876-0.377-2.222-1.063s-0.18-1.545,0.467-2.419l2.03-2.746l-3.366-0.577c-1.072-0.184-1.786-0.689-2.011-1.424   s0.083-1.554,0.869-2.306l2.465-2.363l-3.22-1.137c-1.025-0.362-1.644-0.982-1.742-1.744c-0.098-0.763,0.345-1.518,1.247-2.127   l2.828-1.912l-2.98-1.665c-0.95-0.53-1.455-1.245-1.422-2.013c0.033-0.768,0.596-1.438,1.587-1.886L9.2,44.859l-2.657-2.145   c-0.846-0.683-1.223-1.473-1.061-2.225c0.162-0.751,0.831-1.316,1.883-1.59l3.304-0.86l-2.256-2.563   c-0.718-0.816-0.957-1.658-0.67-2.372c0.286-0.713,1.041-1.157,2.125-1.25l3.427-0.292l-1.805-2.909   c-0.555-0.894-0.662-1.743-0.301-2.39c0.381-0.686,1.203-1.025,2.337-0.929l3.402,0.29l-1.273-3.168   c-0.366-0.909-0.354-1.726,0.034-2.299c0.464-0.687,1.407-0.926,2.543-0.63l3.305,0.86l-0.719-3.337   c-0.246-1.14,0.045-1.802,0.332-2.157c0.555-0.688,1.566-0.81,2.705-0.294l3.111,1.406l-0.145-3.412   c-0.036-0.85,0.167-1.532,0.589-1.972c0.651-0.679,1.729-0.668,2.818,0.069l2.829,1.912l0.434-3.387   c0.204-1.594,1.106-2.162,1.883-2.162c0.587,0,1.209,0.298,1.797,0.862l2.5,2.396l0.814-2.652c0.358-1.167,1.066-1.837,1.941-1.837   c0.474,0,1.188,0.204,1.909,1.176l1.925,2.598l1.789-3.546C48.539,5.079,49.231,4.544,50,4.544s1.461,0.535,1.951,1.506   l1.537,3.049l2.031-2.746c0.72-0.973,1.435-1.177,1.907-1.177c0.875,0,1.582,0.669,1.939,1.837l1,3.265l2.464-2.362   c0.588-0.564,1.21-0.862,1.797-0.862c0.776,0,1.679,0.568,1.883,2.162l0.434,3.387l2.829-1.912   c1.089-0.738,2.167-0.748,2.817-0.069c0.421,0.44,0.625,1.122,0.589,1.972l-0.145,3.412l3.111-1.406   c1.138-0.515,2.149-0.393,2.705,0.294c0.287,0.355,0.577,1.018,0.332,2.157l-0.719,3.337l3.305-0.86   c1.136-0.296,2.08-0.056,2.543,0.63c0.387,0.573,0.399,1.39,0.033,2.299l-1.274,3.168l3.404-0.29   c1.131-0.097,1.957,0.243,2.339,0.93c0.362,0.648,0.258,1.498-0.293,2.394l-1.79,2.907l3.402,0.29   c1.084,0.092,1.839,0.536,2.125,1.25c0.287,0.713,0.048,1.556-0.67,2.372l-2.255,2.563l3.304,0.86   c1.053,0.274,1.721,0.839,1.883,1.59c0.162,0.751-0.215,1.542-1.061,2.225L90.8,44.859l3.111,1.406   c0.991,0.448,1.555,1.118,1.587,1.886c0.033,0.768-0.472,1.483-1.422,2.013l-2.98,1.665l2.828,1.912   c0.901,0.609,1.344,1.364,1.247,2.127c-0.098,0.762-0.716,1.382-1.742,1.744l-3.22,1.137l2.466,2.363   c0.785,0.752,1.094,1.571,0.869,2.306s-0.939,1.241-2.011,1.424l-3.839,0.659l1.946,2.625c0.647,0.874,0.814,1.733,0.469,2.419   c-0.346,0.687-1.135,1.065-2.223,1.065l-2.877,0.001l1.556,3.085c0.457,0.907,0.502,1.742,0.126,2.352   c-0.421,0.685-1.273,0.987-2.446,0.786l-3.365-0.577l1,3.265c0.354,1.157,0.094,1.854-0.188,2.233   c-0.507,0.685-1.493,0.867-2.63,0.467l-3.219-1.138l0.434,3.388c0.112,0.879-0.049,1.595-0.466,2.069   c-0.601,0.683-1.649,0.74-2.767,0.116l-2.981-1.665l-0.145,3.411c-0.073,1.711-1,2.32-1.843,2.321   c-0.543,0-1.135-0.247-1.712-0.713l-2.657-2.146l-0.719,3.338c-0.27,1.252-0.985,2-1.915,2c-0.632,0-1.275-0.352-1.861-1.017   l-2.273-2.584l-1.141,2.835c-0.428,1.063-1.142,1.673-1.958,1.673c-0.717,0-1.407-0.474-1.941-1.335l-1.742-2.808l-1.942,3.154   C47.677,94.989,46.989,95.465,46.273,95.465z M43.788,89.785l1.461,3.636c0.512,1.273,1.401,1.329,2.109,0.179l2.205-3.58   l-2.473-3.986L43.788,89.785z M50.738,90.018l2.006,3.233c0.713,1.149,1.608,1.087,2.121-0.184l1.328-3.303l-3.118-3.542   L50.738,90.018z M57.351,89.566l2.607,2.961c0.385,0.438,0.779,0.678,1.11,0.678c0.424,0,0.774-0.453,0.938-1.211l0.826-3.831   l-3.711-2.997L57.351,89.566z M37.168,88.164l0.826,3.831c0.163,0.759,0.514,1.211,0.938,1.211c0.331,0,0.726-0.241,1.11-0.678   l2.589-2.941l-1.77-4.404L37.168,88.164z M63.938,87.772l3.049,2.462c0.392,0.317,0.777,0.491,1.084,0.491   c0.729,0,0.831-1.043,0.844-1.363l0.166-3.915l-4.144-2.315L63.938,87.772z M30.917,85.448l0.166,3.915   c0.014,0.319,0.115,1.363,0.844,1.363c0.307,0,0.692-0.174,1.084-0.491l3.049-2.462l-1-4.64L30.917,85.448z M47.78,85.249   l2.369,3.818l2.236-3.631L50,82.727L47.78,85.249z M41.675,84.525l1.696,4.22l3.168-3.6l-1.88-3.03L41.675,84.525z M53.624,85.331   l2.987,3.394l1.695-4.215l-2.79-2.253L53.624,85.331z M70.108,84.875l3.421,1.911c0.67,0.375,1.244,0.419,1.529,0.096   c0.219-0.249,0.299-0.704,0.225-1.281l-0.498-3.888l-4.475-1.581L70.108,84.875z M25.215,81.713l-0.498,3.888   c-0.074,0.578,0.006,1.033,0.225,1.282c0.284,0.323,0.858,0.278,1.529-0.097l3.421-1.911l-0.202-4.743L25.215,81.713z    M35.975,82.623l0.958,4.446l3.539-2.857l-1.346-3.35L35.975,82.623z M59.511,84.197l3.557,2.872l0.958-4.446l-3.169-1.771   L59.511,84.197z M50.666,81.97l2.267,2.576l1.799-2.922l-2.199-1.775L50.666,81.97z M45.443,81.482l1.786,2.879l2.104-2.391   l-1.867-2.122L45.443,81.482z M30.677,79.784l0.193,4.545l3.971-2.219l-0.76-3.529L30.677,79.784z M65.159,82.11l3.971,2.219   l0.193-4.545l-3.404-1.203L65.159,82.11z M40.005,80.371l1.279,3.184l2.843-2.295l-1.47-2.37L40.005,80.371z M56.045,81.399   l2.652,2.141l1.279-3.18l-2.449-1.368L56.045,81.399z M20.231,77.069l-1.15,3.748c-0.179,0.584-0.167,1.074,0.035,1.346   c0.238,0.322,0.795,0.364,1.492,0.117l3.695-1.305l0.603-4.708L20.231,77.069z M75.698,80.976l3.694,1.305   c0.698,0.248,1.255,0.205,1.493-0.118c0.201-0.272,0.214-0.762,0.036-1.346l-1.147-3.747l-4.679-0.802L75.698,80.976z    M35.031,78.245l0.723,3.355l2.996-1.673l-1.054-2.624L35.031,78.245z M61.232,79.917l3.014,1.684l0.723-3.354l-2.683-0.948   L61.232,79.917z M48.246,79.22L50,81.213l1.754-1.994L50,77.803L48.246,79.22z M53.194,79.097l2.066,1.668l1.393-2.262l-1.969-1.1   L53.194,79.097z M43.532,78.401l1.38,2.225l1.894-1.529l-1.49-1.693L43.532,78.401z M70.354,79.087l4.288,1.515l-0.578-4.511   l-3.558-0.61L70.354,79.087z M25.936,76.091l-0.578,4.511l4.288-1.515l-0.153-3.606L25.936,76.091z M38.639,76.971l0.99,2.465   l2.5-1.397l-1.171-1.888L38.639,76.971z M58.052,78.14l2.3,1.285l0.99-2.461l-2.107-0.745L58.052,78.14z M66.132,77.596   l3.236,1.143l0.146-3.428l-2.786-0.478L66.132,77.596z M30.487,75.311l0.146,3.428l3.236-1.143l-0.596-2.763L30.487,75.311z    M50.796,77.16l1.62,1.308l1.376-1.563l-1.584-0.885L50.796,77.16z M46.208,76.905l1.376,1.563l1.62-1.308l-1.412-1.14   L46.208,76.905z M55.36,76.636l1.817,1.016l1.092-1.773l-1.711-0.604L55.36,76.636z M41.924,75.81l1.08,1.74l1.636-0.914   l-1.199-1.362L41.924,75.81z M62.659,76.369l2.522,0.891l0.56-2.596L63.5,74.28L62.659,76.369z M34.259,74.664l0.559,2.596   l2.504-0.885l-0.841-2.092L34.259,74.664z M80.55,76.188l3.862,0.663c0.178,0.03,0.344,0.045,0.499,0.045   c0.261,0,0.729-0.048,0.927-0.37c0.184-0.299,0.124-0.802-0.167-1.378l-1.783-3.535l-4.739,0.002L80.55,76.188z M16.095,71.646   l-1.766,3.502c-0.291,0.577-0.352,1.079-0.167,1.378c0.198,0.322,0.666,0.37,0.927,0.37c0.155,0,0.321-0.015,0.499-0.045   l3.867-0.663l1.395-4.543L16.095,71.646z M48.733,75.495L50,76.518l1.267-1.022L50,74.788L48.733,75.495z M44.457,74.915   l1.076,1.223l1.421-0.794l-1.129-0.912L44.457,74.915z M53.046,75.344l1.421,0.794l1.076-1.223l-1.368-0.483L53.046,75.344z    M37.49,74.11l0.776,1.932l2.153-0.761l-0.938-1.512L37.49,74.11z M59.771,75.348l1.945,0.687l0.776-1.928l-1.77-0.304   L59.771,75.348z M74.962,75.23L79.446,76l-1.342-4.383L74.5,71.618L74.962,75.23z M21.896,71.644l-1.336,4.354l4.478-0.768   l0.459-3.588L21.896,71.644z M70.55,74.474l3.382,0.58l-0.44-3.435l-2.821,0.001L70.55,74.474z M26.505,71.642l-0.437,3.412   l3.382-0.58l-0.12-2.834L26.505,71.642z M57.271,74.465l1.535,0.542l0.854-1.386l-1.43-0.245L57.271,74.465z M40.544,73.586   l0.84,1.354l1.344-0.475l-0.958-1.089L40.544,73.586z M51.025,74.215l1.08,0.603l0.963-0.777l-1.06-0.375L51.025,74.215z    M46.932,74.041l0.963,0.777l1.08-0.603l-0.982-0.549L46.932,74.041z M66.938,73.854l2.618,0.449l0.114-2.683l-2.25,0.001   L66.938,73.854z M30.331,71.64l0.113,2.664l2.618-0.449l-0.478-2.216L30.331,71.64z M55.089,73.694l1.166,0.412l0.817-0.928   l-1.108-0.19L55.089,73.694z M42.928,73.178l0.817,0.928l1.167-0.412l-0.875-0.706L42.928,73.178z M63.881,73.331l2.071,0.355   l0.445-2.063l-1.829,0.001L63.881,73.331z M33.607,71.638l0.441,2.047l2.052-0.352l-0.682-1.697L33.607,71.638z M49.248,73.222   L50,73.642l0.751-0.42L50,72.957L49.248,73.222z M53.171,73.016l0.811,0.287l0.669-0.541l-0.785-0.134L53.171,73.016z    M45.349,72.762l0.669,0.541l0.811-0.287l-0.695-0.388L45.349,72.762z M36.496,71.637l0.613,1.524l1.804-0.309l-0.754-1.215   L36.496,71.637z M61.287,72.886l1.585,0.272l0.617-1.534l-1.426,0.001L61.287,72.886z M59.005,72.495l1.219,0.209l0.664-1.079   l-1.118,0L59.005,72.495z M39.334,71.635l0.642,1.034l1.019-0.175l-0.756-0.86L39.334,71.635z M51.501,72.426l0.414,0.146   l0.382-0.213l-0.408-0.07L51.501,72.426z M47.703,72.359l0.382,0.213l0.414-0.146l-0.389-0.137L47.703,72.359z M41.57,71.634   l0.582,0.662L43,72.151l-0.64-0.517L41.57,71.634z M57,72.151l0.848,0.145l0.589-0.67l-0.788,0L57,72.151z M55.255,71.852   l0.432,0.074l0.369-0.298h-0.4L55.255,71.852z M43.951,71.633l0.362,0.292l0.432-0.074l-0.392-0.219L43.951,71.633z M12.937,65.61   l-2.331,3.151c-0.404,0.547-0.542,1.048-0.377,1.375s0.649,0.514,1.328,0.514v0.5l0.002-0.5l3.92-0.002l2.136-4.235L12.937,65.61z    M18.646,66.588L16.6,70.646l4.557-0.002l1.057-3.444L18.646,66.588z M23.207,67.371l-1.004,3.273l3.422-0.001l0.358-2.795   L23.207,67.371z M26.969,68.016l-0.336,2.625l2.654-0.001l-0.096-2.243L26.969,68.016z M30.2,68.57l0.088,2.07l2.081-0.001   l-0.38-1.762L30.2,68.57z M33.051,69.059l0.34,1.58l1.625,0l-0.536-1.334L33.051,69.059z M35.638,69.502l0.456,1.135l1.443-0.001   l-0.561-0.904L35.638,69.502z M38.293,69.958l0.42,0.678l0.645,0l-0.513-0.583L38.293,69.958z M40.414,70.321l0.276,0.313h0.432   l-0.302-0.244L40.414,70.321z M49.958,29.439l-3.487,0.304l-3.388,0.89l-3.189,1.45l-2.896,1.966l-2.523,2.428l-2.076,2.819   l-1.502,2.996l-1.104,3.62l-0.42,3.339l0.156,3.497l0.746,3.425l1.018,2.515l2.722,4.373l1.733,1.959l2.728,2.193l3.058,1.7   l3.308,1.161l3.297,0.559l3.777-0.002l3.327-0.578l3.304-1.175l3.05-1.712l2.719-2.205l2.309-2.634l1.787-2.916l1.357-3.394   l0.715-3.354l0.142-3.498l-0.452-3.473l-1.032-3.345l-0.36-0.698l-5.31-7.152l-0.535-0.502l-2.904-1.954l-3.195-1.437l-3.391-0.875   l-3.486-0.29C49.959,29.439,49.958,29.439,49.958,29.439z M59.18,70.391l-0.291,0.235l0.429,0l0.268-0.304L59.18,70.391z    M61.155,70.052l-0.504,0.573l0.854,0l0.435-0.707L61.155,70.052z M63.253,69.692l-0.574,0.932l1.213,0l0.45-1.118L63.253,69.692z    M65.499,69.307l-0.529,1.316l1.642-0.001l0.337-1.563L65.499,69.307z M68.011,68.876l-0.376,1.745l2.077-0.001L69.8,68.57   L68.011,68.876z M70.808,68.397l-0.095,2.223l2.65-0.001l-0.333-2.603L70.808,68.397z M74.017,67.847l0.355,2.771l3.425-0.001   l-0.995-3.248L74.017,67.847z M77.796,67.199l1.047,3.417l4.541-0.002l-2.03-4.025L77.796,67.199z M82.385,66.412l2.119,4.201   l3.381-0.001c0.681,0,1.165-0.188,1.33-0.515c0.165-0.327,0.026-0.828-0.379-1.374l-2.247-3.032L82.385,66.412z M62.479,68.547   l-0.273,0.31l0.432-0.074l0.23-0.374L62.479,68.547z M35.2,68.413l1.072,0.184l-0.39-0.627l-1.003-0.354L35.2,68.413z    M64.369,67.879l-0.417,0.679l0.828-0.142l0.32-0.794L64.369,67.879z M66.356,67.178l-0.418,1.04l1.238-0.212l0.261-1.209   L66.356,67.178z M32.824,68.005l1.219,0.209l-0.419-1.044l-1.06-0.375L32.824,68.005z M68.544,66.404l-0.306,1.419l1.605-0.275   l0.069-1.627L68.544,66.404z M30.157,67.548l1.605,0.275l-0.306-1.418l-1.368-0.483L30.157,67.548z M70.928,65.562l-0.077,1.813   l2.052-0.352l-0.264-2.065L70.928,65.562z M27.097,67.023l2.052,0.352l-0.077-1.813l-1.711-0.604L27.097,67.023z M23.503,66.407   l2.607,0.447l0.287-2.237l-2.115-0.747L23.503,66.407z M73.604,64.617l0.287,2.237l2.618-0.449l-0.778-2.54L73.604,64.617z    M34.383,66.378l0.657,0.232l-0.171-0.276l-0.649-0.363L34.383,66.378z M65.42,66.173l-0.216,0.351l0.393-0.139l0.161-0.401   L65.42,66.173z M19.116,65.655l3.393,0.582l0.829-2.7l-2.677-0.946L19.116,65.655z M76.674,63.532l0.828,2.703l3.382-0.58   l-1.545-3.064L76.674,63.532z M67.148,65.208l-0.295,0.733l0.831-0.293l0.181-0.841L67.148,65.208z M32.316,65.648l0.811,0.286   l-0.297-0.739l-0.695-0.388L32.316,65.648z M13.603,64.709l4.482,0.769l1.625-3.223l-3.403-1.203L13.603,64.709z M80.29,62.255   l1.625,3.223l4.007-0.687l-2.659-3.587L80.29,62.255z M30.042,64.844l1.167,0.413l-0.237-1.099l-0.982-0.549L30.042,64.844z    M69.028,64.158l-0.237,1.099l1.167-0.412l0.052-1.235L69.028,64.158z M84.25,60.855l2.776,3.746l4.337-0.744   c0.671-0.115,1.117-0.382,1.224-0.732c0.107-0.35-0.113-0.82-0.604-1.292l-2.83-2.712L84.25,60.855z M10.846,59.123l-2.829,2.712   c-0.492,0.471-0.712,0.942-0.605,1.292c0.107,0.35,0.553,0.617,1.224,0.732l3.863,0.662l2.822-3.816L10.846,59.123z M27.491,63.943   l1.535,0.542l-0.062-1.449l-1.267-0.708L27.491,63.943z M71.036,63.036l-0.062,1.449l1.535-0.542l-0.207-1.614L71.036,63.036z    M67.893,63.355l-0.151,0.375l0.404-0.226l0.092-0.428L67.893,63.355z M31.854,63.505l0.382,0.214l-0.154-0.383l-0.321-0.259   L31.854,63.505z M24.575,62.913l1.951,0.689l0.23-1.799l-1.572-0.878L24.575,62.913z M73.243,61.803l0.23,1.799l1.963-0.693   l-0.61-1.991L73.243,61.803z M69.477,62.077l-0.168,0.779l0.751-0.42l0.037-0.859L69.477,62.077z M29.94,62.436l0.751,0.42   l-0.168-0.779l-0.62-0.5L29.94,62.436z M21.115,61.69l2.516,0.889l0.661-2.153l-1.982-1.107L21.115,61.69z M75.72,60.419   l0.661,2.156l2.504-0.885l-1.195-2.371L75.72,60.419z M71.133,60.739l-0.048,1.124l1.08-0.603l-0.157-1.227L71.133,60.739z    M27.834,61.26l1.08,0.603l-0.048-1.124l-0.875-0.707L27.834,61.26z M16.93,60.211l3.235,1.143l1.272-2.523l-2.467-1.378   L16.93,60.211z M78.563,58.831l1.272,2.523l2.805-0.991l-1.997-2.694L78.563,58.831z M72.922,59.295l0.185,1.439l1.421-0.794   l-0.477-1.557L72.922,59.295z M25.485,59.947l1.408,0.787l0.185-1.439l-1.116-0.901L25.485,59.947z M69.899,60.117l-0.087,0.403   l0.341-0.275l0.019-0.438L69.899,60.117z M29.847,60.245l0.341,0.275l-0.087-0.403l-0.273-0.31L29.847,60.245z M81.524,57.177   l2.103,2.837l4.718-1.667l-3.284-3.147L81.524,57.177z M11.655,58.348l4.289,1.516l2.146-2.902l-3.151-1.76L11.655,58.348z    M22.761,58.425l1.831,1.023l0.531-1.731l-1.425-1.15L22.761,58.425z M74.89,57.706l0.531,1.735l1.818-1.016l-0.938-1.859   L74.89,57.706z M71.224,58.612l-0.034,0.796l0.669-0.541l-0.109-0.854L71.224,58.612z M28.141,58.868l0.669,0.541l-0.034-0.796   l-0.526-0.598L28.141,58.868z M72.63,57.014l0.143,1.116l0.962-0.777l-0.362-1.183L72.63,57.014z M26.278,57.364l0.949,0.766   l0.143-1.116l-0.73-0.83L26.278,57.364z M9.881,52.375l-3.246,2.194c-0.564,0.381-0.86,0.809-0.814,1.172   c0.046,0.363,0.441,0.701,1.083,0.928l3.695,1.306l3.426-3.284L9.881,52.375z M85.975,54.691l3.426,3.284l3.695-1.306   c0.642-0.227,1.036-0.565,1.083-0.928c0.046-0.363-0.25-0.791-0.814-1.172l-3.246-2.194L85.975,54.691z M77.097,55.924l1.015,2.014   l1.931-1.079l-1.536-2.073L77.097,55.924z M19.569,56.642l2.318,1.295l1.015-2.014l-1.754-1.417L19.569,56.642z M71.309,56.609   l-0.018,0.412l0.29-0.329l-0.056-0.435L71.309,56.609z M28.419,56.693l0.29,0.329l-0.028-0.661L28.5,56.068L28.419,56.693z    M24.159,55.653l1.281,1.034l0.424-1.384l-0.972-1.104L24.159,55.653z M74.149,55.288l0.425,1.388l1.267-1.023l-0.733-1.454   L74.149,55.288z M79.285,54.157l1.638,2.21l3.383-1.89l-2.478-2.375L79.285,54.157z M15.693,54.477l2.996,1.673l1.681-2.272   l-2.199-1.776L15.693,54.477z M26.984,55.062l0.555,0.631l0.124-0.972l-0.384-0.62L26.984,55.062z M72.359,54.902l0.101,0.791   l0.569-0.646l-0.252-0.823L72.359,54.902z M21.744,53.702l1.62,1.308l0.817-1.621l-1.198-1.362L21.744,53.702z M75.82,53.39   l0.817,1.621l1.274-1.029l-1.194-1.611L75.82,53.39z M25.377,53.236l0.832,0.945l0.371-1.208l-0.59-0.951L25.377,53.236z    M73.476,53.09l0.33,1.075l0.817-0.929l-0.557-1.104L73.476,53.09z M82.614,51.469l2.606,2.498l3.971-2.219l-3.769-2.547   L82.614,51.469z M10.809,51.749l3.971,2.219l2.606-2.498l-2.809-2.268L10.809,51.749z M77.393,51.603l1.297,1.75l2.412-1.947   l-1.918-1.838L77.393,51.603z M72.102,52.891l0.055,0.433l0.23-0.374l-0.134-0.436L72.102,52.891z M18.898,51.405l2.066,1.668   l1.341-1.813l-1.49-1.693L18.898,51.405z M23.59,51.206l1.075,1.222l0.707-1.401l-0.753-1.213L23.59,51.206z M74.681,51.132   l0.653,1.296l0.773-0.879l-0.919-1.241L74.681,51.132z M72.847,51.038l0.238,0.778l0.451-0.732l-0.394-0.781L72.847,51.038z    M26.517,50.976l0.452,0.728l0.19-0.62l-0.309-0.769L26.517,50.976z M10.071,45.563l-3.57,1.614c-0.62,0.28-0.985,0.651-1,1.017   s0.316,0.766,0.91,1.098l3.421,1.911l3.933-2.658L10.071,45.563z M86.236,48.544l3.933,2.658l3.421-1.911   c0.594-0.332,0.926-0.732,0.91-1.098s-0.38-0.737-1-1.017l-3.57-1.614L86.236,48.544z M75.753,49.391l1.03,1.39l1.678-1.907   l-1.503-1.44L75.753,49.391z M15.444,48.616l2.67,2.156l2.041-1.956l-1.867-2.122L15.444,48.616z M79.845,48.816l2.041,1.956   l2.67-2.156l-2.843-1.921L79.845,48.816z M21.539,48.875l1.375,1.563l1.138-1.538l-0.946-1.526L21.539,48.875z M73.64,49.067   l0.512,1.017l0.395-0.641l-0.686-0.926L73.64,49.067z M25.259,48.949l0.64,1.032l0.455-0.901l-0.419-1.043L25.259,48.949z    M27.45,49.126l0.176,0.437l0.118-0.384l-0.096-0.445L27.45,49.126z M72.265,49.137l0.116,0.379l0.162-0.403l-0.191-0.379   L72.265,49.137z M74.299,47.429l0.813,1.097l1.108-1.799l-1.183-1.133L74.299,47.429z M19.123,46.129l1.755,1.994l1.689-1.619   l-1.181-1.904L19.123,46.129z M77.495,46.563l1.628,1.561l1.755-1.994l-2.201-1.487L77.495,46.563z M23.843,46.666l0.849,1.368   l0.805-1.088L24.956,45.6L23.843,46.666z M11.092,45.102l3.539,2.857l2.991-2.021l-2.385-2.709L11.092,45.102z M82.378,45.938   l2.991,2.021l3.539-2.857l-4.145-1.874L82.378,45.938z M26.633,47.092l0.321,0.798l0.359-0.712l-0.168-0.778L26.633,47.092z    M72.688,47.178l0.353,0.7l0.122-0.303l-0.434-0.586L72.688,47.178z M73.009,45.688l0.591,0.798l0.659-1.638l-0.886-0.85   L73.009,45.688z M25.734,44.854l0.461,1.148l0.669-0.905l-0.237-1.099L25.734,44.854z M75.439,44.593l1.316,1.262l1.092-1.773   l-1.732-1.17L75.439,44.593z M22.214,44.04l1.09,1.757l1.25-1.197l-0.676-1.684L22.214,44.04z M27.937,45.329l0.092,0.428   l0.186-0.369l-0.018-0.412L27.937,45.329z M16.19,42.797l2.267,2.576l2.401-1.623l-1.484-2.392L16.19,42.797z M79.202,43.79   l2.342,1.583l2.267-2.576l-3.126-1.414L79.202,43.79z M71.839,44.11l0.377,0.508l0.309-1.433l-0.621-0.595L71.839,44.11z    M85.454,42.443l4.325,1.955l3.049-2.462c0.529-0.427,0.789-0.877,0.711-1.235c-0.077-0.358-0.499-0.662-1.158-0.833L88.59,38.88   L85.454,42.443z M11.41,38.88l-3.792,0.987c-0.659,0.171-1.081,0.475-1.158,0.833c-0.077,0.358,0.182,0.808,0.711,1.235   l3.049,2.462l4.325-1.955L11.41,38.88z M27.475,43.186l0.181,0.841l0.474-0.641l-0.034-0.795L27.475,43.186z M24.725,42.343   l0.607,1.511l1.048-1.004l-0.306-1.418L24.725,42.343z M73.62,42.85l1.041,0.998l0.607-1.509l-1.342-0.907L73.62,42.85z    M76.498,41.962l1.875,1.267l1.392-2.261l-2.426-1.097L76.498,41.962z M20.292,40.943l1.394,2.247l1.81-1.223l-0.841-2.092   L20.292,40.943z M70.797,42.704l0.096,0.129l0.049-1.165l-0.316-0.303L70.797,42.704z M29.058,41.668l0.019,0.438l0.246-0.332   l0.052-0.409L29.058,41.668z M26.967,40.828l0.261,1.209l0.812-0.778l-0.048-1.124L26.967,40.828z M71.96,41.259l0.812,0.778   l0.261-1.209l-1.025-0.693L71.96,41.259z M12.494,38.598l3.005,3.415l3.343-1.511l-1.899-3.062L12.494,38.598z M81.212,40.525   l3.289,1.487l3.005-3.415l-4.402-1.146L81.212,40.525z M23.567,39.462l0.776,1.932l1.503-1.016l-0.382-1.773L23.567,39.462z    M74.153,40.378l1.497,1.012l0.776-1.93l-1.891-0.855L74.153,40.378z M28.965,39.478l0.036,0.859l0.575-0.551l0.101-0.79   L28.965,39.478z M70.424,39.786l0.575,0.551l0.036-0.859l-0.712-0.482L70.424,39.786z M77.712,38.943l2.582,1.167l1.799-2.922   l-3.326-0.866L77.712,38.943z M17.956,37.175l1.805,2.91l2.521-1.14l-1.054-2.623L17.956,37.175z M26.397,38.183l0.343,1.591   l1.202-0.812l-0.062-1.449L26.397,38.183z M72.058,38.962l1.202,0.812l0.343-1.591l-1.483-0.67L72.058,38.962z M68.977,38.399   l0.297,0.286l-0.056-0.435l-0.363-0.245L68.977,38.399z M30.781,38.25l-0.056,0.435l0.338-0.325l0.117-0.38L30.781,38.25z    M22.204,36.069l0.99,2.464l2.055-0.929L24.774,35.4L22.204,36.069z M74.751,37.604l2.049,0.926l0.991-2.463L75.226,35.4   L74.751,37.604z M28.862,37.069l0.052,1.236l0.932-0.63l0.143-1.115L28.862,37.069z M70.153,37.675l0.932,0.63l0.052-1.236   l-1.127-0.509L70.153,37.675z M83.653,36.561l4.593,1.196l2.589-2.942c0.45-0.51,0.629-0.998,0.493-1.338   c-0.137-0.34-0.604-0.568-1.282-0.626l-3.904-0.332L83.653,36.561z M13.888,32.517l-3.934,0.334   c-0.678,0.058-1.146,0.286-1.282,0.626c-0.136,0.34,0.043,0.828,0.493,1.338l2.589,2.942l4.636-1.207L13.888,32.517z    M72.166,36.436l1.653,0.747l0.438-2.035l-2.015-0.525L72.166,36.436z M25.743,35.148l0.438,2.035l1.653-0.747l-0.077-1.813   L25.743,35.148z M31.06,36.076l-0.109,0.853l0.698-0.472l0.231-0.751L31.06,36.076z M68.39,36.483l0.66,0.446l-0.109-0.853   l-0.784-0.354L68.39,36.483z M79.143,35.386l3.498,0.911l2.385-3.874l-4.537-0.386L79.143,35.386z M15.006,32.421l2.397,3.864   l3.449-0.898l-1.346-3.35L15.006,32.421z M69.861,35.395l1.322,0.598l0.069-1.626l-1.575-0.411L69.861,35.395z M28.748,34.366   l0.069,1.626l1.322-0.598l0.184-1.439L28.748,34.366z M66.729,35.36l0.342,0.231l-0.128-0.418l-0.399-0.181L66.729,35.36z    M33.093,35.156l-0.125,0.409l0.303-0.205l0.186-0.368L33.093,35.156z M20.548,31.95l1.279,3.184l2.735-0.712l-0.595-2.763   L20.548,31.95z M75.437,34.421l2.729,0.711l1.28-3.183l-3.415-0.291L75.437,34.421z M67.767,34.448l1.025,0.463l-0.157-1.227   l-1.197-0.312L67.767,34.448z M31.366,33.684l-0.157,1.227l1.061-0.479l0.328-1.068L31.366,33.684z M72.286,33.601l2.182,0.568   l0.56-2.596l-2.646-0.226L72.286,33.601z M24.972,31.573l0.56,2.596l2.182-0.568l-0.096-2.253L24.972,31.573z M65.827,33.571   l0.726,0.328l-0.252-0.823l-0.833-0.217L65.827,33.571z M33.734,33.067l-0.25,0.815l0.689-0.312l0.358-0.711L33.734,33.067z    M69.54,32.886l1.756,0.457l0.088-2.08l-2.075-0.177L69.54,32.886z M28.616,31.263l0.088,2.08l1.756-0.457l0.23-1.8L28.616,31.263z    M35.821,32.524l-0.198,0.391L36,32.745l0.246-0.332L35.821,32.524z M63.123,32.349l1.254,0.566l-0.198-0.391l-1.147-0.299   L63.123,32.349z M67.093,32.249l1.404,0.366L68.291,31l-1.622-0.138L67.093,32.249z M31.709,31l-0.207,1.615l1.44-0.375   l0.424-1.381L31.709,31z M64.868,31.67l1.089,0.283l-0.362-1.183l-1.233-0.104L64.868,31.67z M34.44,30.767l-0.361,1.177   l1.053-0.274l0.506-1.004L34.44,30.767z M80.879,31.067l4.733,0.403l2.054-3.336c0.348-0.565,0.447-1.068,0.272-1.381   c-0.181-0.325-0.685-0.479-1.382-0.421l-3.907,0.333L80.879,31.067z M13.162,26.319c-0.554,0-0.943,0.153-1.098,0.431   c-0.173,0.312-0.072,0.813,0.277,1.376l2.073,3.341l4.702-0.4l-1.77-4.404l-3.904-0.333C13.345,26.323,13.252,26.319,13.162,26.319   z M36.808,30.566l-0.387,0.768l0.771-0.201l0.474-0.641L36.808,30.566z M62.082,30.944l1.497,0.39l-0.387-0.768l-1.484-0.126   L62.082,30.944z M18.462,26.759l1.696,4.22l3.597-0.306l-0.76-3.528L18.462,26.759z M76.245,30.673l3.593,0.306l1.697-4.22   l-4.53,0.385L76.245,30.673z M38.993,30.38l-0.261,0.353l0.399-0.104l0.298-0.286L38.993,30.38z M72.424,30.348l2.816,0.24   l0.723-3.354l-3.419,0.291L72.424,30.348z M24.037,27.233l0.723,3.354l2.816-0.24l-0.12-2.823L24.037,27.233z M69.18,30.072   l2.247,0.191l0.113-2.653l-2.646,0.225L69.18,30.072z M28.46,27.61l0.113,2.653l2.247-0.191l0.286-2.237L28.46,27.61z    M66.353,29.831l1.808,0.154l-0.265-2.065l-2.074,0.177L66.353,29.831z M32.104,27.92l-0.265,2.065l1.843-0.157l0.531-1.729   L32.104,27.92z M63.833,29.617l1.446,0.123l-0.477-1.557l-1.622,0.138L63.833,29.617z M35.232,28.186l-0.476,1.551l1.411-0.12   l0.653-1.295L35.232,28.186z M60.914,29.368l1.749,0.149l-0.557-1.104l-1.788,0.152L60.914,29.368z M37.894,28.413l-0.557,1.104   l1.121-0.095l0.668-0.904L37.894,28.413z M40.296,28.617l-0.512,0.691l0.794-0.067l0.575-0.551L40.296,28.617z M59.421,29.241   l0.164,0.014l-0.438-0.591l-0.302,0.025L59.421,29.241z M42.481,28.803l-0.316,0.303l0.412-0.035l0.341-0.231L42.481,28.803z    M57.424,29.071l0.412,0.035l-0.316-0.303l-0.437,0.037L57.424,29.071z M53.39,27.949l0.375,0.169l0.412-0.035l-0.363-0.245   L53.39,27.949z M45.823,28.084l0.412,0.035l0.375-0.169l-0.424-0.11L45.823,28.084z M55.104,27.503l0.66,0.446l0.793-0.067   l-0.621-0.595L55.104,27.503z M43.443,27.881l0.793,0.067l0.66-0.446l-0.833-0.217L43.443,27.881z M49.601,27.694L50,27.798   l0.399-0.104L50,27.514L49.601,27.694z M57.073,26.99l0.812,0.778l0.563-0.048l-0.676-0.912L57.073,26.99z M40.995,27.673   l1.121,0.096l0.812-0.778l-1.197-0.312L40.995,27.673z M58.815,26.537l0.803,1.084l2.002-0.17l-0.733-1.453L58.815,26.537z    M38.379,27.45l1.446,0.123l0.862-1.166l-1.575-0.41L38.379,27.45z M35.532,27.208l1.773,0.151l0.817-1.62l-1.98-0.516   L35.532,27.208z M61.878,25.739l0.817,1.62l1.808-0.154l-0.61-1.991L61.878,25.739z M51.214,26.965l0.726,0.328l0.771-0.201   l-0.713-0.482L51.214,26.965z M47.289,27.093l0.771,0.201l0.726-0.328l-0.784-0.354L47.289,27.093z M32.231,26.927l2.282,0.194   l0.66-2.15l-2.604-0.678L32.231,26.927z M64.862,24.962l0.66,2.156l2.247-0.191l-0.337-2.634L64.862,24.962z M68.407,24.039   l0.359,2.803l2.816-0.24l0.146-3.428L68.407,24.039z M28.417,26.603l2.816,0.24l0.359-2.803l-3.321-0.865L28.417,26.603z    M53.068,26.127L54,26.757l1.088-0.283l-0.893-0.856L53.068,26.127z M44.912,26.474L46,26.757l0.932-0.63l-1.127-0.509   L44.912,26.474z M72.74,22.911l-0.153,3.606l3.597-0.306l0.958-4.446L72.74,22.911z M23.816,26.211l3.597,0.306l-0.153-3.606   l-4.401-1.146L23.816,26.211z M48.975,25.953L50,26.417l1.025-0.463L50,25.26L48.975,25.953z M42.371,25.812l1.404,0.366   l1.048-1.004l-1.484-0.671L42.371,25.812z M55.177,25.174l1.048,1.004l0.905-0.236l-0.917-1.236L55.177,25.174z M18.045,25.72   l4.729,0.402l-1-4.64l-3.792-0.987c-0.244-0.063-0.471-0.096-0.673-0.096c-0.262,0-0.612,0.055-0.79,0.318   c-0.193,0.286-0.169,0.784,0.065,1.367L18.045,25.72z M78.226,21.482l-1,4.64l4.727-0.402l1.463-3.637   c0.234-0.583,0.258-1.081,0.066-1.366c-0.178-0.263-0.527-0.318-0.79-0.318c-0.203,0-0.429,0.032-0.673,0.096L78.226,21.482z    M57.146,24.284l1.027,1.387l2.254-0.587l-0.938-1.859L57.146,24.284z M39.572,25.083l1.756,0.457l1.079-1.459l-1.897-0.857   L39.572,25.083z M50.893,24.657l1.202,0.812l1.322-0.598l-1.176-1.127L50.893,24.657z M46.583,24.872l1.322,0.598l1.202-0.812   l-1.349-0.912L46.583,24.872z M60.402,22.812l1.015,2.014l2.183-0.568l-0.778-2.539L60.402,22.812z M36.435,24.267l2.147,0.559   l1.015-2.014l-2.385-1.078L36.435,24.267z M53.089,23.172l1.31,1.256l1.205-0.545l-1.19-1.606L53.089,23.172z M43.947,23.681   l1.653,0.748l1.31-1.256l-1.725-1.166L43.947,23.681z M48.497,23.038L50,24.054l1.503-1.016L50,21.597L48.497,23.038z    M32.696,23.293l2.77,0.721l0.828-2.696l-3.162-1.429L32.696,23.293z M63.741,21.303l0.827,2.703l2.735-0.712l-0.436-3.404   L63.741,21.303z M55.243,21.717l1.293,1.745l2.503-1.131l-1.196-2.372L55.243,21.717z M40.96,22.331l2.055,0.929l1.341-1.813   l-2.2-1.487L40.96,22.331z M67.821,19.458l0.458,3.581l3.493-0.91l0.193-4.544L67.821,19.458z M28.228,22.129l3.493,0.91   l0.458-3.581l-4.145-1.874L28.228,22.129z M45.781,21.202l1.868,1.263l1.628-1.561l-1.917-1.837L45.781,21.202z M50.723,20.904   l1.628,1.561l1.467-0.992l-1.532-2.067L50.723,20.904z M58.679,19.395l1.272,2.524l2.575-1.165l-1.004-3.281L58.679,19.395z    M37.508,20.77l2.54,1.148l1.272-2.524l-2.808-1.898L37.508,20.77z M72.986,17.124l-0.202,4.742l4.593-1.196l0.826-3.831   c0.125-0.579,0.077-1.06-0.132-1.318c-0.257-0.32-0.833-0.319-1.514-0.012L72.986,17.124z M22.623,20.67l4.593,1.196l-0.202-4.742   l-3.571-1.614c-0.682-0.308-1.255-0.309-1.514,0.012c-0.209,0.258-0.257,0.739-0.132,1.318L22.623,20.67z M53.014,18.708   l1.634,2.205l2.743-1.854l-1.545-3.064L53.014,18.708z M42.61,19.059l2.341,1.582l1.681-2.272l-2.477-2.374L42.61,19.059z    M33.265,18.852l3.324,1.503l1.057-3.444l-3.804-2.571L33.265,18.852z M62.389,16.887l1.057,3.452l3.289-1.487l-0.578-4.512   L62.389,16.887z M47.959,18.256L50,20.211l1.686-1.616l-1.991-2.686L47.959,18.256z M38.819,16.497l2.956,1.997l1.625-3.223   l-3.249-3.114L38.819,16.497z M56.6,15.271l1.625,3.223l2.991-2.021l-1.332-4.35L56.6,15.271z M67.085,13.713l0.603,4.708   l4.325-1.955l0.167-3.916c0.024-0.563-0.087-1.003-0.312-1.238c-0.31-0.323-0.885-0.232-1.535,0.206L67.085,13.713z M27.987,16.466   l4.325,1.955l0.603-4.708l-3.247-2.194c-0.65-0.439-1.226-0.53-1.536-0.206c-0.225,0.235-0.336,0.674-0.312,1.237L27.987,16.466z    M50.316,15.069l2.097,2.83l2.96-2.838L53.326,11L50.316,15.069z M44.626,15.061l2.605,2.498l1.841-2.489l-2.649-3.574   L44.626,15.061z M33.985,13.229l3.968,2.682l1.39-4.529l-2.864-2.745c-0.393-0.376-0.785-0.584-1.105-0.584   c-0.673,0-0.852,0.987-0.891,1.289L33.985,13.229z M60.692,11.349l1.39,4.539l3.933-2.658l-0.498-3.887   C65.479,9.04,65.3,8.053,64.626,8.053c-0.32,0-0.712,0.208-1.105,0.584L60.692,11.349z M53.992,10.099l2.137,4.238l3.427-3.284   l-1.147-3.747c-0.217-0.708-0.584-1.13-0.983-1.13c-0.338,0-0.74,0.281-1.104,0.772L53.992,10.099z M40.479,11.087l3.392,3.25   l1.886-3.741l-2.225-3.001c-0.363-0.491-0.766-0.772-1.105-0.772c-0.4,0-0.768,0.423-0.985,1.13L40.479,11.087z M46.927,10.496   l2.767,3.733L52.822,10L51.058,6.5c-0.613-1.216-1.503-1.216-2.116,0L46.927,10.496z"/></g></svg>