<svg xmlns="http://www.w3.org/2000/svg" xmlns:xlink="http://www.w3.org/1999/xlink" version="1.1" width="64" height="64" x="0px" y="0px" viewBox="0 0 64 64" style="enable-background:new 0 0 64 64;" xml:space="preserve"><style type="text/css">
  rect,path{opacity:0.2;}
</style><rect x="8" y="8" width="25" height="2"/><rect x="8" y="14" width="25" height="2"/><rect x="8" y="20" width="34" height="2"/><rect x="8" y="26" width="34" height="2"/><path d="M48,28.3V14.7L38.5,2H2v56h32v0c3,2.5,6.8,4,11,4c9.4,0,17-7.6,17-17C62,36.6,56,29.7,48,28.3z M39,6l6,8h-6V6z M4,4h33v12  h9v12.1c-0.3,0-0.7-0.1-1-0.1c-4.2,0-8,1.5-11,4v0H8v2h24c-1,1.2-1.9,2.5-2.5,4H8v2h20.7c-0.4,1.3-0.6,2.6-0.7,4H8v2h20.1  c0.1,1.4,0.3,2.7,0.7,4H8v2h21.5c0.7,1.5,1.5,2.8,2.5,4H4V4z M45,60c-8.3,0-15-6.7-15-15s6.7-15,15-15s15,6.7,15,15S53.3,60,45,60z"/><path d="M45,32c-2.2,0-4,1.8-4,4v13.2l4,9.3l4-9.3V36C49,33.8,47.2,32,45,32z M45,34c1.1,0,2,0.9,2,2v12h-4V36  C43,34.9,43.9,34,45,34z M43.5,50h3L45,53.5L43.5,50z"/></svg>