<svg xmlns="http://www.w3.org/2000/svg" xmlns:xlink="http://www.w3.org/1999/xlink" version="1.1" width="64" height="64" x="0px" y="0px" viewBox="0 0 100 125" enable-background="new 0 0 100 100" xml:space="preserve"><style type="text/css">rect,path,polygon,circle{opacity:0.15;}</style><g><path d="M28.747,65.502l26.819-26.768c0,0,4.18-4.961,9.63,7.696c0,0,0.213-0.181,2.852-2.486c0.873-0.762,3.044-1.446,8.779,8.566   c0,0,4.727,8.057,12.013,8.887v7.795H28.686L28.747,65.502z"/><circle cx="38.496" cy="38.299" r="6.166"/><path d="M77.478,46.635l6.004-0.009v-0.011l0.063,0.011c0.897,0,1.595-0.562,1.595-1.46c0-0.608-0.357-1.132-0.852-1.411   c-0.124-1.257-1.182-2.239-2.47-2.239c-1.036,0-1.923,0.634-2.296,1.535c-0.147-0.094-0.322-0.152-0.51-0.152   c-0.523,0-0.947,0.424-0.947,0.947l0.006,0.065c-0.121-0.038-0.247-0.063-0.381-0.063c-0.728,0-1.318,0.676-1.318,1.404   c0,0.655,0.478,1.383,1.101,1.383H77.478h-0.004"/><polygon fill="none" points="72.887,19.012 54.52,25 74.84,25  "/><polygon fill="none" points="22,75 22,71.661 22,34.318 9.347,38.514 23.44,81.198 41.917,75 26.197,75  "/><polygon points="23.55,81.198 9.347,38.408 22,34.318 22,30.928 8.859,35.284 5.394,36.449 6.281,39.002 20.292,81.897    21.471,85.472 25.052,84.096 52.315,75 41.917,75  "/><polygon points="72.887,19.012 74.84,25 78.229,25 75.785,16.932 74.952,14.094 72.399,15.354 44.123,25 54.52,25  "/><path d="M92.798,25H78.229H74.84H54.52H44.123H26.197H22v1.545v4.384v3.389v37.343V75h4.197h15.72h10.398h40.483H95v-3.339V26.545   V25H92.798z M92,72H61.836H51.311H25V28h8.533h10.524h31.635h3.431H92V72z"/></g></svg>