<svg xmlns="http://www.w3.org/2000/svg" xmlns:xlink="http://www.w3.org/1999/xlink" version="1.1" width="64" height="64"  x="0px" y="0px" viewBox="0 0 48 60" style="enable-background:new 0 0 48 48;" xml:space="preserve"><style type="text/css">rect,path{opacity:0.6;}</style><g><path d="M47.9,19.7l-3-7.7l0.8-0.3c0.8-0.3,2.4-1.7,1.6-3.7l-2.4-6.2c-0.6-1.5-2.3-2.2-3.7-1.6l-3.4,1.3c-2,0.8-2,2.9-1.6,3.7   l2.4,6.2c0.3,0.8,1.6,2.4,3.7,1.6l0.8-0.3l2.8,7.1L41,24.4C39.5,14.4,31,6.8,20.6,6.8C9.3,6.8,0,16,0,27.4S9.3,48,20.6,48   c11.4,0,20.6-9.2,20.6-20.6c0-0.2,0-0.4,0-0.5l6.4-6.1C47.9,20.5,48,20.1,47.9,19.7z M41.5,11.2c-0.2,0.1-0.9,0.2-1.1-0.5L38,4.5   c-0.1-0.2-0.2-0.8,0.5-1.1L41.8,2c0.5-0.2,1,0.1,1.1,0.5l2.4,6.2c0.2,0.7-0.3,1-0.5,1.1L41.5,11.2z M27.9,34.5   c-1.7,0-3.1,1.4-3.1,3.1c0,1.7,1.4,3.1,3.1,3.1c1.7,0,3.1-1.4,3.1-3.1c0-0.3-0.1-0.6-0.1-0.8c0,0,0.1,0,0.1-0.1l8.2-7.8   C38.4,38.4,30.4,46,20.6,46C10.4,46,2,37.7,2,27.4S10.4,8.8,20.6,8.8c9.8,0,17.8,7.6,18.5,17.3l-9.5,9   C29.2,34.7,28.6,34.5,27.9,34.5z M29,37.6c0,0.6-0.5,1.1-1.1,1.1c-0.6,0-1.1-0.5-1.1-1.1c0-0.6,0.5-1.1,1.1-1.1   C28.5,36.4,29,36.9,29,37.6z"/><path d="M20.6,20.4c-3.9,0-7,3.2-7,7s3.2,7,7,7s7-3.2,7-7S24.5,20.4,20.6,20.4z M20.6,32.5c-2.8,0-5.1-2.3-5.1-5.1s2.3-5.1,5.1-5.1   c2.8,0,5.1,2.3,5.1,5.1S23.4,32.5,20.6,32.5z"/></g></svg>