<svg xmlns="http://www.w3.org/2000/svg" xmlns:xlink="http://www.w3.org/1999/xlink" version="1.1" width="64" height="64" x="0px" y="0px" viewBox="0 0 100 125" enable-background="new 0 0 100 100" xml:space="preserve"><style type="text/css">rect,path{opacity:0.1;}</style><path fill="#000000" d="M48.143,26.884l0.703,1.813L89.529,9.9l-0.817-1.766L48.143,26.884z M51.859,34.716l0.654,1.92  l28.479-13.142l-0.853-1.847L51.859,34.716z M24.332,44.984l0.7,1.516c1.781,3.852,6.345,5.531,10.196,3.751l10.995-5.083  l-0.947-2.048l-6.754,3.121c-1.925,0.89-3.964,0.577-4.553-0.697c-0.59-1.276,0.493-3.031,2.419-3.92l6.753-3.123l-2.3-4.979  l-6.754,3.122c-1.926,0.89-3.761,1.018-4.099,0.285c-0.338-0.731,0.949-2.046,2.874-2.936l6.755-3.121l-0.539-1.165L28.082,34.79  C24.231,36.569,22.553,41.133,24.332,44.984z M41.812,53.793l-3.881,2.494c2.091,3.084,5.404,1.604,5.535,4.004  c0.104,1.904-6.345,3.948-9.938-1.156l-1.858,1.213c-2.115,1.393,4.149,7.215,9.027,4.961c6.139-2.773,6.442-6.688,5.221-9.326  C44.996,53.991,43.965,52.441,41.812,53.793z M46.931,50.278c-0.441,0.417-0.696,1-0.711,1.652  c-0.016,0.769,0.654,1.899,0.841,2.354c2.132,4.613,1.861,8.921-5.12,12.146l-1.177,0.543c-4.572,2.113-8.587-0.173-10.958-2.684  c-0.656-0.533-1.584-0.682-2.403-0.303c-0.539,0.25-0.924,0.678-1.137,1.185c-1.219,2.533-0.373,6.892,6.813,16.411  c3.712,4.92-2.538,7.412-2.538,7.412l-16.524,7.637c0,0-5.603,3.076-5.869-3.525c-0.137-3.366-1.492-16.996-1.867-21.312  C4.746,54.129,18.472,48.71,18.472,48.71l1.778-0.77l-1.178-2.55c-7.424,3.445-11.83-3.25-10.396-4.761  c1.804-1.9,3.498,2.16,7.828,0.16c1.492-0.69,2.685-1.737,3.486-3.006c0.292-0.471,0.531-0.973,0.708-1.498  c0.148-0.638,0.577-1.2,1.214-1.496L77.188,9.245l-0.559-1.209c-0.38-0.825,0.043-1.66,0.953-1.863l5.811-1.307  c0.692-0.156,1.467,0.103,1.965,0.603l1.766-0.816c1.102-0.509,2.404-0.03,2.914,1.07l3.467,7.502  c0.508,1.1,0.025,2.404-1.072,2.913l-10.24,4.734c0.201,0.187,0.369,0.416,0.488,0.68l1.555,3.365c0.51,1.1,0.031,2.404-1.068,2.913  L51.863,42.295C53.564,45.975,51.168,47.46,46.931,50.278z"/></svg>