<svg xmlns="http://www.w3.org/2000/svg" xmlns:xlink="http://www.w3.org/1999/xlink" version="1.1" width="64" height="64" x="0px" y="0px" viewBox="0 0 88.531 110.66375000000001" enable-background="new 0 0 88.531 88.531" xml:space="preserve"><style type="text/css">rect,path{opacity:0.2;}</style><path d="M77.432,33.243c0-0.085-0.015-0.167-0.024-0.25c0.004-0.104,0.022-0.202,0.022-0.307  c0-7.084-7.889-12.032-19.185-12.032c-5.737,0-10.707,2.173-13.65,3.821c-3.313-1.866-8.106-3.821-13.643-3.821  c-11.297,0-19.187,4.948-19.187,12.032c0,0.109,0.021,0.21,0.024,0.318c-0.009,0.079-0.024,0.157-0.024,0.238c0,0,0,13.636,0,13.879  c0,4.621,5.848,9.572,18.455,15.611c3.92,1.879,7.974,3.824,11.017,5.934c0.877,0.604,2.041,0.936,3.274,0.936h0.163  c1.242,0,2.407-0.334,3.276-0.938c3.067-2.12,7.137-4.069,11.071-5.954C77.43,53.893,77.43,48.797,77.43,47.122  C77.43,46.881,77.432,33.243,77.432,33.243z M30.953,24.654c5.492,0,10.25,2.409,12.598,3.845c0.64,0.391,1.447,0.392,2.088,0  c2.346-1.436,7.102-3.844,12.606-3.844c8.799,0,15.185,3.378,15.185,8.032c0,5.25-8.197,9.177-16.136,12.979  c-4.077,1.954-8.293,3.975-11.618,6.271c-0.113,0.078-0.468,0.228-1.001,0.228h-0.163c-0.462,0-0.849-0.12-1.003-0.226  c-3.298-2.285-7.498-4.301-11.613-6.274c-7.93-3.799-16.13-7.727-16.13-12.979C15.766,28.032,22.153,24.654,30.953,24.654z   M31.896,59.102c-14.967-7.168-16.13-10.98-16.13-11.979c0-0.243,0-6.391,0-6.391c3.571,3.339,9.05,5.977,14.455,8.565  c3.92,1.881,7.974,3.826,11.02,5.937c0.261,0.179,0.553,0.325,0.858,0.455v8.763C39.057,62.539,35.447,60.805,31.896,59.102z"/></svg>