<svg xmlns:dc="http://purl.org/dc/elements/1.1/" xmlns:cc="http://creativecommons.org/ns#" xmlns:rdf="http://www.w3.org/1999/02/22-rdf-syntax-ns#" xmlns:svg="http://www.w3.org/2000/svg" xmlns="http://www.w3.org/2000/svg" xmlns:sodipodi="http://sodipodi.sourceforge.net/DTD/sodipodi-0.dtd" xmlns:inkscape="http://www.inkscape.org/namespaces/inkscape" version="1.1" width="64" height="64" x="0px" y="0px" viewBox="0 0 100 125"><style type="text/css">rect,path{opacity:0.2;}</style><g transform="translate(0,-952.36218)"><path style="text-indent:0;text-transform:none;direction:ltr;block-progression:tb;baseline-shift:baseline;color:#000000;enable-background:accumulate;" d="m 50,955.36216 c -5.49916,0 -10,4.50085 -10,10 0,4.81175 3.4545,8.84457 8,9.78125 l 0,14.375 c -2.09028,0.32632 -4.01717,1.1418 -5.65625,2.34375 L 32.625,982.14341 C 33.49973,980.7569 34,979.1123 34,977.36216 c 0,-4.94687 -4.05312,-9 -9,-9 -4.94686,0 -8.99999,4.05311 -9,9 10e-6,4.94685 4.05311,9 9,9 1.75576,0 3.39192,-0.52636 4.78125,-1.40625 l 9.75,9.75 c -1.20796,1.64234 -2.04768,3.55954 -2.375,5.65629 l -14.375,0 C 21.84458,995.81665 17.81176,992.36212 13,992.36216 c -5.4991297,-2e-5 -9.99998,4.50085 -10,10.00004 4e-5,5.4991 4.5008403,10 10,10 4.81173,0 8.84456,-3.4545 9.78125,-8 l 14.375,0 c 0.32631,2.0903 1.1418,4.0172 2.34375,5.6562 l -9.71875,9.7188 c -1.38651,-0.8747 -3.0311,-1.375 -4.78125,-1.375 -4.94689,0 -8.99999,4.0531 -9,9 10e-6,4.9469 4.05314,9 9,9 4.94688,0 9,-4.0531 9,-9 0,-1.7558 -0.52636,-3.3919 -1.40625,-4.7813 l 9.75,-9.75 c 1.64234,1.208 3.55953,2.0477 5.65625,2.375 l 0,14.375 c -4.54551,0.9367 -8.00004,4.9695 -8,9.7813 -2e-5,5.4991 4.50085,10 10,10 5.49915,-10e-5 10,-4.5009 10,-10 -2e-5,-4.8117 -3.45451,-8.8446 -8,-9.7813 l 0,-14.375 c 2.09672,-0.3273 4.01391,-1.167 5.65625,-2.375 l 9.75,9.75 C 66.52636,1023.9703 66,1025.6064 66,1027.3622 c 0,4.9469 4.05312,9 9,9 4.94686,0 8.99999,-4.0531 9,-9 -1e-5,-4.9469 -4.05311,-9 -9,-9 -1.75015,0 -3.39474,0.5003 -4.78125,1.375 L 60.5,1010.0184 c 1.20195,-1.639 2.01744,-3.5659 2.34375,-5.6562 l 14.375,0 c 0.93668,4.5455 4.9695,8 9.78125,8 5.49913,0 9.99998,-4.5009 10,-10 -2e-5,-5.49919 -4.50084,-10.00004 -10,-10.00004 -4.81173,2e-5 -8.84456,3.45451 -9.78125,8.00004 l -14.375,0 c -0.32732,-2.09675 -1.16704,-4.01395 -2.375,-5.65629 l 9.75,-9.75 c 1.38933,0.87989 3.02549,1.40625 4.78125,1.40625 4.94689,0 8.99999,-4.05315 9,-9 -1e-5,-4.94689 -4.05314,-9 -9,-9 -4.94688,0 -9,4.05313 -9,9 0,1.75014 0.50027,3.39474 1.375,4.78125 l -9.71875,9.71875 C 56.01717,990.66021 54.09028,989.84473 52,989.51841 l 0,-14.375 c 4.5455,-0.93668 8,-4.9695 8,-9.78125 0,-5.49914 -4.50083,-10 -10,-10 z m 0,4 c 3.33739,0 6,2.66262 6,6 0,3.33736 -2.66261,6 -6,6 -3.33738,0 -6,-2.66264 -6,-6 0,-3.33737 2.66262,-6 6,-6 z m -25,13 c 2.78512,0 5,2.21489 5,5 10e-6,2.7851 -2.2149,5.00001 -5,5 -2.78513,0 -4.99999,-2.21491 -5,-5 10e-6,-2.78513 2.2149,-5 5,-5 z m 50,0 c 2.7851,0 4.99999,2.21487 5,5 -1e-5,2.78509 -2.21487,5 -5,5 -2.7851,10e-6 -5.00001,-2.2149 -5,-5 0,-2.78511 2.21488,-5 5,-5 z m -25,21 c 4.99424,0 9,4.00579 9,9.00004 0,4.9942 -4.00576,9 -9,9 -4.99424,0 -9,-4.0058 -9,-9 0,-4.99425 4.00576,-9.00004 9,-9.00004 z m -37,3 c 3.33735,-2e-5 6,2.6626 6,6.00004 -2e-5,3.3374 -2.66266,6 -6,6 -3.3373797,0 -5.9999797,-2.6626 -5.9999997,-6 2e-5,-3.33743 2.66265,-6.00006 5.9999997,-6.00004 z m 74,0 c 3.33738,0 5.99998,2.66259 6,6.00004 -2e-5,3.3374 -2.66265,6 -6,6 -3.33736,0 -6,-2.6626 -6,-6 2e-5,-3.33741 2.66266,-6.00002 6,-6.00004 z m -62,26.00004 c 2.7851,0 5.00001,2.2149 5,5 0,2.7851 -2.21488,5 -5,5 -2.7851,0 -4.99999,-2.2149 -5,-5 10e-6,-2.7851 2.21487,-5 5,-5 z m 50,0 c 2.78513,0 4.99999,2.2149 5,5 -1e-5,2.7851 -2.2149,5 -5,5 -2.78512,0 -5,-2.2149 -5,-5 -1e-5,-2.7851 2.2149,-5 5,-5 z m -25,11 c 3.33737,0 5.99998,2.6626 6,6 0,3.3374 -2.66259,6 -6,6 -3.33739,0 -6.00002,-2.6627 -6,-6 -2e-5,-3.3374 2.6626,-6 6,-6 z" fill="#000000" fill-opacity="1" stroke="none" marker="none" visibility="visible" display="inline" overflow="visible"/></g></svg>