<svg xmlns="http://www.w3.org/2000/svg" viewBox="0 0 90 112.5375" width="64" height="64" x="0px" y="0px"><style type="text/css">rect,path{opacity:0.2;}</style><g data-name="Layer 2"><g data-name="Layer 1"><path d="M89.81,44.33C89.72,44.24,81.89,36,71.68,34c5.84-8.57,5.63-19.9,5.63-20v-.28l-.28,0c-.14,0-12.28-.61-21.14,5.65C54.2,8.59,45.31.28,45.21.19L45,0l-.21.19C44.69.28,36,8.39,34.2,18.91c-8.73-6.15-20.6-5.75-20.74-5.75h-.28v.28c0,.14-.4,12,5.75,20.73C8.39,36,.28,44.69.19,44.79L0,45l.19.2c.09.1,8.21,8.79,18.74,10.6-6.17,8.73-5.77,20.63-5.76,20.76v.28H14c2.42,0,12.52-.35,20.19-5.75C36,81.64,44.69,89.75,44.79,89.84L45,90l.21-.19c.1-.09,9-8.4,10.66-19.11C63.27,76,73,76.4,76,76.4c.61,0,1,0,1,0l.28,0v-.28c0-.13.22-12-6-20.63,10.46-1.93,18.46-10.61,18.54-10.71l.19-.21ZM57.28,20.59c6.46-4.4,14.84-5,18.14-5.09-.16,3.23-1,10.85-5,17a22.94,22.94,0,0,0-3.07-.21h-.14a28.53,28.53,0,0,0-13.68,4,28.38,28.38,0,0,0,3.86-13.6C57.39,22,57.35,21.33,57.28,20.59Zm-11,24.12h-.58c.33-.33.8-.83,1.36-1.46,3.42-3.08,11.17-9,20.12-9.08h.14a21.65,21.65,0,0,1,3.25.25A21.53,21.53,0,0,1,68.33,37C61.21,43.94,50.11,44.67,46.33,44.71Zm0,.62c3.79,0,14.87.77,22,7.67a21.31,21.31,0,0,1,1.81,2,20.79,20.79,0,0,1-2.79.21h-.14c-10.16,0-18.85-7.55-21.3-9.89Zm9.18-22.61c0,8.88-5.79,16.61-8.87,20.09-.58.52-1,1-1.34,1.27.1-3.33,1-15,8.35-22.15a20.68,20.68,0,0,1,1.73-1.5A21.36,21.36,0,0,1,55.53,22.71ZM45,2.63c2.33,2.5,7.63,8.86,9,16.56-.57.46-1.1.92-1.6,1.4a28.79,28.79,0,0,0-7.29,12.94,28.81,28.81,0,0,0-7.09-13,25,25,0,0,0-1.89-1.68C37.56,11.26,42.84,5,45,2.63ZM34.66,20a21.78,21.78,0,0,1,2,1.78c7.39,7.39,8,19.34,8,22.44h0L44.4,44c-2.5-2.61-9.92-11.2-9.92-21.25A20.44,20.44,0,0,1,34.66,20Zm9.59,24.67c-3.07,0-15-.61-22.45-8a21.08,21.08,0,0,1-1.78-2,21.52,21.52,0,0,1,2.69-.17c10.06,0,18.65,7.42,21.25,9.93ZM15,15c3.24.12,11.39.87,17.73,5.15a23.33,23.33,0,0,0-.14,2.53,28.6,28.6,0,0,0,4.06,14,28.6,28.6,0,0,0-14-4.06,23.5,23.5,0,0,0-2.54.14C15.88,26.41,15.14,18.38,15,15ZM18.82,53.9C11.28,52.46,5.07,47.29,2.62,45c2.44-2.29,8.62-7.44,16.18-8.9A24.93,24.93,0,0,0,20.48,38a28.71,28.71,0,0,0,12.79,7,28.59,28.59,0,0,0-12.78,7A23.15,23.15,0,0,0,18.82,53.9Zm25.42-8.56C42,47.52,33.16,55.53,22.71,55.53A21.07,21.07,0,0,1,20,55.35a22.14,22.14,0,0,1,1.75-2C29.2,46,41.15,45.37,44.24,45.34ZM32.76,69.85C26.43,74.13,18.28,74.87,15,75c.11-3.19.83-11.37,5.16-17.75a23.61,23.61,0,0,0,2.51.14,28.63,28.63,0,0,0,14-4.06,28.6,28.6,0,0,0-4.07,14A23.75,23.75,0,0,0,32.76,69.85Zm1.72-2.53c0-10.5,8.09-19.39,10.22-21.55v0c0,3.08-.61,15-8,22.45a21.76,21.76,0,0,1-2,1.78A21.54,21.54,0,0,1,34.48,67.32ZM45,87.41c-2.29-2.44-7.44-8.63-8.9-16.17A21.67,21.67,0,0,0,38,69.55a28.71,28.71,0,0,0,7.1-13,28.79,28.79,0,0,0,7.29,12.94c.51.49,1,1,1.6,1.41C52.63,78.55,47.34,84.92,45,87.41ZM55.4,69.6a20.66,20.66,0,0,1-1.73-1.5c-7.52-7.29-8.28-19.25-8.35-22.32C47.48,48,55.53,56.84,55.53,67.32A21.36,21.36,0,0,1,55.4,69.6Zm20,4.93c-3.26-.06-11.64-.67-18.14-5.09.07-.74.11-1.44.11-2.13A28.76,28.76,0,0,0,53.12,53a28.81,28.81,0,0,0,14.11,4.1h.14A22.47,22.47,0,0,0,70,56.9C74.41,63.21,75.26,71.36,75.42,74.54Zm-4.06-21a23.82,23.82,0,0,0-1.73-1.88A28.31,28.31,0,0,0,57.37,45a28.29,28.29,0,0,0,12.25-6.65,21.61,21.61,0,0,0,2.19-2.46c7.27,1.58,13.2,6.46,15.57,8.66C85,46.85,78.84,52,71.36,53.55Z"/><path d="M45.12,29.57a27.77,27.77,0,0,1,6.4-9.88c.35-.34.71-.67,1.1-1C51.32,12.48,47.38,7.2,45,4.48c-2.32,2.67-6.16,7.82-7.54,13.85.49.41,1,.85,1.4,1.28A27.9,27.9,0,0,1,45.12,29.57ZM45,6.41a31.87,31.87,0,0,1,6.24,11.85c-.2.18-.4.36-.59.55a27.83,27.83,0,0,0-5.52,7.67,28.05,28.05,0,0,0-5.39-7.75c-.29-.28-.59-.57-.9-.85A32.47,32.47,0,0,1,45,6.41Z"/><path d="M67.21,31.07h.14a23.54,23.54,0,0,1,2.44.13,34.6,34.6,0,0,0,4.29-14.41c-3.62.2-10.17,1.06-15.51,4.43,0,.51,0,1,0,1.49a27.54,27.54,0,0,1-2.37,10.85A27.63,27.63,0,0,1,67.21,31.07Zm-7.36-9.18A32.11,32.11,0,0,1,72.7,18.13,33.15,33.15,0,0,1,69.12,29.9c-.6,0-1.19-.07-1.76-.07h-.14a27.76,27.76,0,0,0-8.81,1.56,27.52,27.52,0,0,0,1.46-8.68C59.86,22.45,59.86,22.18,59.85,21.89Z"/><path d="M61.29,45a27.46,27.46,0,0,1,9.2,5.76c.46.45.9.91,1.33,1.4,6-1.44,11.09-5.29,13.72-7.61A34.34,34.34,0,0,0,72.3,37.29a23,23,0,0,1-1.81,2A27.36,27.36,0,0,1,61.29,45Zm11.44-6.33A32.94,32.94,0,0,1,83.6,44.58a32.39,32.39,0,0,1-11.37,6.21c-.29-.31-.58-.61-.88-.9a27.58,27.58,0,0,0-7-4.88,27.67,27.67,0,0,0,7-4.87C71.82,39.69,72.28,39.2,72.74,38.69Z"/><path d="M67.37,58.32h-.14A27.88,27.88,0,0,1,56,55.8a27.88,27.88,0,0,1,2.65,11.52c0,.49,0,1,0,1.49,5.36,3.39,11.89,4.24,15.51,4.44-.3-3.52-1.33-9.85-4.68-15C68.72,58.28,68,58.31,67.37,58.32Zm-7.52,9.83c0-.28,0-.55,0-.82A28,28,0,0,0,58.19,58a28.08,28.08,0,0,0,9,1.56h.14c.46,0,.92,0,1.38,0a32.57,32.57,0,0,1,4,12.4A32,32,0,0,1,59.85,68.14Z"/><path d="M45.12,60.46a27.87,27.87,0,0,1-6.25,10c-.45.45-.91.87-1.4,1.29C38.85,77.78,42.69,82.9,45,85.56c2.37-2.72,6.32-8,7.62-14.23-.38-.32-.75-.66-1.11-1A27.92,27.92,0,0,1,45.12,60.46ZM45,83.63a32.28,32.28,0,0,1-6.15-11.47c.3-.28.6-.56.89-.85a28,28,0,0,0,5.4-7.74,28,28,0,0,0,5.5,7.66l.6.56A31.76,31.76,0,0,1,45,83.63Z"/><path d="M22.71,58.63c-.62,0-1.24,0-1.89-.08-3.3,5.24-4.22,11.6-4.48,15.14,3.54-.26,9.89-1.19,15.11-4.46-.06-.64-.08-1.28-.08-1.9a27.68,27.68,0,0,1,2.51-11.2A27.71,27.71,0,0,1,22.71,58.63Zm7.46,9.93a32.65,32.65,0,0,1-12.46,3.76,32.5,32.5,0,0,1,3.78-12.48c.41,0,.81,0,1.22,0a27.86,27.86,0,0,0,9-1.56,27.81,27.81,0,0,0-1.57,9C30.14,67.73,30.15,68.14,30.17,68.55Z"/><path d="M19.6,38.87c-.43-.44-.87-.91-1.28-1.4C12.24,38.85,7.12,42.69,4.47,45c2.66,2.32,7.8,6.17,13.87,7.54.41-.48.84-.95,1.26-1.38A27.69,27.69,0,0,1,29.31,45,27.85,27.85,0,0,1,19.6,38.87Zm-.87,11.42c-.28.28-.56.57-.83.87A32.2,32.2,0,0,1,6.4,45a32.13,32.13,0,0,1,11.49-6.15c.27.31.55.61.84.89A28,28,0,0,0,26.22,45,27.65,27.65,0,0,0,18.73,50.28Z"/><path d="M22.71,31.38a27.73,27.73,0,0,1,11.17,2.5,27.73,27.73,0,0,1-2.5-11.17c0-.63,0-1.27.08-1.91-5.23-3.28-11.59-4.2-15.12-4.46.24,3.52,1.15,9.85,4.46,15.11C21.44,31.41,22.09,31.38,22.71,31.38Zm7.46-9.91c0,.41,0,.83,0,1.24a27.85,27.85,0,0,0,1.56,9,27.85,27.85,0,0,0-9-1.56c-.41,0-.82,0-1.24,0A32.31,32.31,0,0,1,17.7,17.72,32.68,32.68,0,0,1,30.17,21.47Z"/><path d="M31.07,13.73a2.17,2.17,0,1,0-2.17-2.17A2.17,2.17,0,0,0,31.07,13.73Zm0-3.72a1.55,1.55,0,1,1-1.55,1.55A1.55,1.55,0,0,1,31.07,10Z"/><path d="M58.93,13.73a2.17,2.17,0,1,0-2.17-2.17A2.17,2.17,0,0,0,58.93,13.73Zm0-3.72a1.55,1.55,0,1,1-1.55,1.55A1.55,1.55,0,0,1,58.93,10Z"/><path d="M79.06,33.86a2.17,2.17,0,1,0-2.17-2.17A2.17,2.17,0,0,0,79.06,33.86Zm0-3.72a1.55,1.55,0,1,1-1.55,1.55A1.55,1.55,0,0,1,79.06,30.14Z"/><path d="M11.26,33.55a2.17,2.17,0,1,0-2.17-2.17A2.17,2.17,0,0,0,11.26,33.55Zm0-3.72a1.55,1.55,0,1,1-1.55,1.55A1.55,1.55,0,0,1,11.26,29.83Z"/><path d="M31.07,76.3a2.17,2.17,0,1,0,2.17,2.17A2.17,2.17,0,0,0,31.07,76.3Zm0,3.72a1.55,1.55,0,1,1,1.55-1.55A1.55,1.55,0,0,1,31.07,80Z"/><path d="M58.93,76.3a2.17,2.17,0,1,0,2.17,2.17A2.17,2.17,0,0,0,58.93,76.3Zm0,3.72a1.55,1.55,0,1,1,1.55-1.55A1.55,1.55,0,0,1,58.93,80Z"/><path d="M79.06,56.17a2.17,2.17,0,1,0,2.17,2.17A2.17,2.17,0,0,0,79.06,56.17Zm0,3.72a1.55,1.55,0,1,1,1.55-1.55A1.55,1.55,0,0,1,79.06,59.89Z"/><path d="M11.26,56.48a2.17,2.17,0,1,0,2.17,2.17A2.17,2.17,0,0,0,11.26,56.48Zm0,3.72a1.55,1.55,0,1,1,1.55-1.55A1.55,1.55,0,0,1,11.26,60.2Z"/></g></g></svg>