<svg xmlns="http://www.w3.org/2000/svg" xmlns:xlink="http://www.w3.org/1999/xlink" xml:space="preserve" version="1.1" style="shape-rendering:geometricPrecision;text-rendering:geometricPrecision;image-rendering:optimizeQuality;" viewBox="0 0 820 828.75" width="64" height="64" x="0px" y="0px" fill-rule="evenodd" clip-rule="evenodd"><style type="text/css">rect,path{opacity:0.5;}</style><g><path d="M201 396l0 212c0,68 -95,73 -108,15 -91,-19 -115,-127 -72,-193 -40,-73 13,-164 98,-165 3,-24 9,-48 19,-70 -9,-14 -10,-32 0,-47 127,-197 417,-197 544,0 9,15 8,33 -1,47 10,22 17,46 20,70 85,1 137,92 98,165 43,66 19,174 -72,193 -14,58 -109,53 -109,-15l0 -212c0,-28 17,-46 38,-52 10,-45 5,-90 -13,-131 -12,0 -25,-7 -32,-19 -94,-146 -308,-146 -402,0 -8,12 -20,19 -33,19 -17,41 -22,86 -12,131 20,6 37,24 37,52zm580 13c-14,-13 -32,-23 -54,-27 -4,-17 -15,-29 -29,-35 4,-19 5,-38 5,-56 60,1 100,63 78,118zm-742 0c14,-13 32,-23 54,-27 4,-17 15,-29 28,-35 -3,-19 -5,-38 -4,-56 -60,1 -100,63 -78,118z"/></g></svg>