<svg xmlns="http://www.w3.org/2000/svg" data-name="Layer 1" viewBox="0 0 100 125" width="64" height="64" x="0px" y="0px"><style type="text/css">rect,path{opacity:0.2;}</style><g data-name="Group"><path data-name="Compound Path" d="M50,2.8A47.2,47.2,0,1,0,97.2,50,47.25,47.25,0,0,0,50,2.8Zm0,88.4A41.2,41.2,0,1,1,91.2,50,41.25,41.25,0,0,1,50,91.2Z"/><path data-name="Compound Path" d="M53,40.87V17.05H47V40.87A9.61,9.61,0,1,0,59.13,53H74.3V47H59.13A9.65,9.65,0,0,0,53,40.87ZM50,53.61A3.61,3.61,0,1,1,53.61,50,3.62,3.62,0,0,1,50,53.61Z"/><circle data-name="Path" cx="17.38" cy="50.81" r="3.67"/><path data-name="Path" d="M64.48,75.89a3.67,3.67,0,1,0,5,1.34A3.65,3.65,0,0,0,64.48,75.89Z"/><path data-name="Path" d="M23.59,31.32h0a3.68,3.68,0,1,0,1.34,5A3.68,3.68,0,0,0,23.58,31.32Z"/><path data-name="Path" d="M77.3,38.05a3.71,3.71,0,0,0,1,.13,3.68,3.68,0,0,0,3.18-5.52,3.68,3.68,0,0,0-5-1.34h0a3.68,3.68,0,0,0,.89,6.73Z"/><path data-name="Path" d="M32.74,26.11a3.69,3.69,0,0,0,1,.13,3.68,3.68,0,1,0-1.84-6.86h0a3.68,3.68,0,0,0,.89,6.73Z"/><path data-name="Path" d="M35.52,75.89a3.67,3.67,0,1,0,1.71,2.23A3.68,3.68,0,0,0,35.52,75.89Z"/><circle data-name="Path" cx="50" cy="83.44" r="3.67"/><path data-name="Path" d="M64.47,25.74a3.68,3.68,0,0,0,3.68-6.37h0a3.68,3.68,0,0,0-3.67,6.37Z"/><path data-name="Path" d="M19.91,63.94h0a3.68,3.68,0,1,0,5,1.35A3.68,3.68,0,0,0,19.91,63.94Z"/><circle data-name="Path" cx="82.62" cy="50.81" r="3.67"/><path data-name="Path" d="M80.09,63.94h0a3.68,3.68,0,1,0,1.35,5A3.68,3.68,0,0,0,80.09,63.94Z"/></g></svg>